<?xml version="1.0" encoding="UTF-8"?>
<svg id="Layer_1" data-name="Layer 1" xmlns="http://www.w3.org/2000/svg" viewBox="0 0 277.61 145.74">
  <defs>
    <style>
      .cls-1 {
        fill: #d6d9e5;
      }

      .cls-1, .cls-2 {
        stroke-width: 0px;
      }

      .cls-2 {
        fill: #eeb058;
      }
    </style>
  </defs>
  <g id="Group_432" data-name="Group 432">
    <path id="Union_2" data-name="Union 2" class="cls-2" d="m205.52,76.38c-.36,0-.64-.28-.65-.64-.12-13.7-4.58-27.01-12.73-38.01h0s-6.76,5.63-6.76,5.63h0s0,.01,0,.01c6.83,9.41,10.57,20.72,10.69,32.35,0,.36-.29.66-.65.66,0,0,0,0,0,0h-7.5c-.35,0-.64-.28-.65-.64-.04-3.68-.52-7.35-1.43-10.92-.09-.35-.46-.56-.81-.47-.02,0-.04.01-.06.02l-7.09,2.56c-.31.11-.48.43-.41.75.6,2.64.93,5.33.97,8.04,0,.36-.29.66-.66.66,0,0,0,0,0,0h-7.5c-.35,0-.64-.28-.65-.64-.15-7.21-2.86-14.12-7.65-19.51-.24-.27-.66-.29-.93-.05-.14.12-.22.3-.22.48v19.07c0,.36-.29.65-.65.65h-7.5c-.36,0-.65-.29-.65-.65h0v-35.47c0-.36.3-.65.66-.65.08,0,.15.01.22.04,9.17,3.46,16.74,10.2,21.24,18.91.23.45.76.64,1.22.45l6.38-2.71c.48-.2.7-.75.5-1.22,0-.02-.01-.03-.02-.05-3.6-7.16-8.92-13.31-15.49-17.9-.29-.2-.36-.6-.17-.89l4.24-6.13c.21-.3.62-.37.92-.17,2.86,1.99,5.54,4.25,7.98,6.73h0s.09.09.14.14l6.1-5.32c.27-.23.3-.64.07-.92,0-.01-.02-.02-.03-.03-8.58-8.68-19.4-14.82-31.26-17.72-.35-.08-.56-.43-.48-.77l1.74-7.24c.09-.35.44-.57.8-.48,0,0,0,0,0,0,32.47,7.91,56.61,36.83,56.91,71.39,0,.36-.3.66-.66.66h-7.51Zm-123.31,0c-.36,0-.66-.29-.66-.65,0,0,0,0,0,0,.12-11.63,3.86-22.94,10.7-32.35h0s-6.76-5.64-6.76-5.64h0c-8.16,11-12.62,24.31-12.73,38.01,0,.35-.29.64-.65.64h-7.5c-.36,0-.66-.29-.66-.65.3-34.56,24.44-63.47,56.91-71.39.35-.09.71.13.8.48,0,0,0,0,0,0l1.74,7.24c.08.34-.13.69-.48.77,0,0,0,0,0,0-11.86,2.91-22.68,9.04-31.27,17.73-.25.26-.25.67.01.92,0,0,.02.02.03.02l5.66,4.93c.25.22.62.22.87,0,2.46-2.29,5.03-4.45,7.7-6.48.29-.21.7-.13.91.16,0,0,0,0,0,0l4.24,6.14c.2.29.13.69-.16.89-6.57,4.59-11.9,10.74-15.49,17.9-.23.46-.03,1.02.43,1.25.02,0,.03.02.05.02l6.38,2.71c.46.19.99,0,1.22-.45,4.5-8.71,12.06-15.45,21.24-18.91.34-.13.72.05.84.39.03.07.04.15.04.22v35.46c0,.36-.29.65-.65.65h-7.5c-.36,0-.65-.29-.65-.65h0v-19.07c0-.36-.3-.65-.66-.65-.19,0-.36.08-.49.22-4.79,5.38-7.51,12.3-7.66,19.51,0,.35-.29.64-.65.64h-7.51c-.36,0-.66-.29-.66-.65,0,0,0,0,0,0,.04-2.62.35-5.23.91-7.78.1-.46-.15-.93-.6-1.09l-6.86-2.48c-.34-.12-.72.05-.84.39,0,.02-.01.04-.02.06-.9,3.57-1.37,7.24-1.41,10.92,0,.35-.29.64-.65.64h-7.5Zm52.85,0c-.36,0-.65-.29-.65-.65V29.28c0-.36-.3-.65-.66-.65-.02,0-.04,0-.06,0-5.06.52-10.01,1.84-14.65,3.91-.3.14-.66.02-.83-.26l-3.77-6.48c-.18-.31-.08-.71.23-.89.01,0,.03-.02.04-.02,14.48-6.93,33.73-6.93,48.2,0,.32.16.46.54.3.87,0,.01-.01.03-.02.04l-3.77,6.49c-.17.29-.53.4-.83.26-4.65-2.07-9.59-3.39-14.65-3.91-.36-.04-.68.22-.72.58,0,.02,0,.04,0,.06v46.45c0,.36-.29.65-.65.65,0,0,0,0,0,0h-7.5Zm9.88-63c-2.02-.19-4.06-.29-6.13-.29-2.07,0-4.11.09-6.13.29-.34.03-.64-.2-.7-.53l-2.06-11.65c-.06-.36.18-.69.53-.76.01,0,.03,0,.04,0,5.53-.59,11.12-.59,16.65,0,.36.04.62.36.58.72,0,.01,0,.03,0,.04l-2.07,11.65c-.06.31-.33.53-.64.53h-.07Z"/>
  </g>
  <g id="Group_6-2" data-name="Group 6-2">
    <path id="Path_49" data-name="Path 49" class="cls-1" d="m23.35,129.31l-16.97-21.74c-.1-.13-.25-.2-.42-.2H.75c-.29,0-.53.23-.53.53,0,0,0,0,0,0v37.13c0,.29.23.53.53.53h7.49c.29,0,.53-.23.53-.53,0,0,0,0,0,0v-20.79c0-.29.23-.53.53-.53.16,0,.32.08.42.2l16.69,21.44c.1.13.25.2.42.2h5.54c.29,0,.53-.23.53-.52,0,0,0,0,0,0v-37.13c0-.29-.23-.53-.53-.53t0,0h-7.55c-.29,0-.53.24-.53.53v21.09c0,.29-.24.53-.53.53-.16,0-.32-.07-.42-.2"/>
    <path id="Path_50" data-name="Path 50" class="cls-1" d="m52.9,129.66h15.98c.29,0,.53-.24.53-.53v-6.14c0-.29-.24-.53-.53-.53h-15.98c-.29,0-.53-.24-.53-.53v-6.68c0-.29.23-.53.53-.53,0,0,0,0,0,0h17.61c.29,0,.53-.24.53-.53v-6.3c0-.29-.24-.53-.53-.53h-26.15c-.29,0-.53.24-.53.53v37.13c0,.29.24.53.53.53h26.48c.29,0,.53-.23.53-.53h0v-6.3c0-.29-.24-.53-.53-.53h-17.93c-.29,0-.53-.24-.53-.53v-7.49c0-.29.24-.53.53-.53"/>
    <path id="Path_51" data-name="Path 51" class="cls-1" d="m112.39,107.37h-8.45c-.18,0-.35.09-.44.24l-7.23,11.31c-.16.25-.48.32-.73.16-.06-.04-.12-.09-.16-.15l-7.42-11.32c-.1-.15-.26-.24-.44-.24h-8.88c-.29,0-.53.24-.53.53,0,.11.03.21.09.3l12.08,17.41c.12.18.12.42,0,.6l-12.79,18.52c-.17.24-.1.57.14.73.09.06.19.09.3.09h8.5c.18,0,.34-.09.44-.24l8.23-12.64c.16-.24.49-.31.73-.15.06.04.12.1.16.16l7.88,12.62c.1.15.27.25.45.25h8.73c.29,0,.53-.24.53-.53,0-.1-.03-.21-.09-.29l-12.42-18.71c-.12-.18-.12-.41,0-.59l11.75-17.25c.16-.24.1-.57-.14-.73-.09-.06-.19-.09-.3-.09"/>
    <path id="Path_52" data-name="Path 52" class="cls-1" d="m118.9,114.84h10.9c.29,0,.53.24.53.53v29.67c0,.29.24.53.53.53h7.55c.29,0,.53-.23.53-.53h0v-29.67c0-.29.23-.53.53-.53,0,0,0,0,0,0h10.85c.29,0,.53-.24.53-.53v-6.41c0-.29-.24-.53-.53-.53,0,0,0,0,0,0h-31.4c-.29,0-.53.24-.53.53v6.41c0,.29.24.53.53.53"/>
    <path id="Path_53" data-name="Path 53" class="cls-1" d="m180.47,128.47c1.85-.86,3.43-2.21,4.54-3.92,1.11-1.79,1.68-3.87,1.62-5.98.03-2.04-.52-4.05-1.6-5.79-1.09-1.72-2.63-3.09-4.46-3.98-2.09-1-4.39-1.49-6.7-1.44h-15.1c-.29,0-.53.24-.53.53v37.13c0,.29.24.53.53.53h7.49c.29,0,.53-.23.53-.53h0v-15.16h.87l5.76,7.95c.1.14,5.7,7.73,5.87,7.73h8.78c.29,0,.53-.23.53-.53,0-.12-.04-.23-.11-.32l-11.02-14.48c-.18-.23-.13-.56.1-.74.06-.05.13-.08.21-.09.93-.21,1.84-.53,2.7-.94m-13.68-13.91c0-.29.24-.53.53-.53h5.58c1.42-.09,2.81.4,3.87,1.35.92.89,1.42,2.13,1.38,3.41.06,1.3-.45,2.55-1.41,3.43-1.09.9-2.49,1.36-3.9,1.27h-5.53c-.29,0-.53-.24-.53-.53v-8.41Z"/>
    <path id="Path_54" data-name="Path 54" class="cls-1" d="m195.93,145.56h7.49c.29,0,.53-.24.53-.53v-37.13c0-.29-.24-.53-.53-.53h-7.49c-.29,0-.53.24-.53.53v37.13c0,.29.24.53.53.53"/>
    <path id="Path_55" data-name="Path 55" class="cls-1" d="m238.09,125.55c-.25-.15-.33-.47-.18-.71.04-.07.09-.12.16-.17.58-.38,1.11-.82,1.58-1.32,1.53-1.63,2.34-3.8,2.27-6.03.01-1.75-.44-3.47-1.33-4.98-.93-1.56-2.29-2.82-3.92-3.62-1.95-.95-4.11-1.41-6.28-1.35h-15.92c-.29,0-.53.24-.53.53v37.13c0,.29.24.53.53.53h15.81c2.4.07,4.79-.44,6.95-1.49,1.82-.89,3.35-2.27,4.43-3.98,1.04-1.69,1.57-3.64,1.54-5.63.07-2.56-.87-5.04-2.6-6.92-.74-.79-1.59-1.47-2.54-2m-9.31-11.52c1.21-.05,2.39.32,3.35,1.05.9.77,1.38,1.93,1.3,3.11.1,1.21-.38,2.39-1.3,3.19-.97.72-2.15,1.08-3.35,1.03h-5.85c-.29,0-.53-.24-.53-.53v-7.33c0-.29.24-.53.53-.53h5.85Zm4.54,23.45c-1.03.99-2.42,1.51-3.84,1.43h-6.56c-.29,0-.53-.24-.53-.53v-8.95c0-.29.23-.53.53-.53,0,0,0,0,0,0h6.56c.97-.03,1.93.2,2.79.65.76.42,1.39,1.03,1.81,1.78.44.78.66,1.65.65,2.54.04,1.34-.47,2.64-1.41,3.6"/>
    <path id="Path_56" data-name="Path 56" class="cls-1" d="m258.85,137.68v-7.49c0-.29.24-.53.53-.53h15.98c.29,0,.53-.24.53-.53h0v-6.14c0-.29-.24-.53-.53-.53h-15.99c-.29,0-.53-.24-.53-.53h0v-6.68c0-.29.24-.53.53-.53h17.61c.29,0,.53-.23.53-.53h0v-6.3c0-.29-.24-.53-.53-.53,0,0,0,0,0,0h-26.15c-.29,0-.53.24-.53.53h0v37.13c0,.29.24.53.53.53h26.47c.29,0,.53-.24.53-.53h0v-6.3c0-.29-.24-.53-.53-.53h-17.93c-.29,0-.53-.24-.53-.53h0"/>
  </g>
</svg>